<svg class="img-fluid" id="outputsvg" xmlns="http://www.w3.org/2000/svg" style="transform: matrix(1, 0, 0, 1, 0, 0); transform-origin: 50% 50%; cursor: move; transition: transform 200ms ease-in-out;" width="402" height="461" viewBox="0 0 4020 4610"><g id="l124kjsXxdfxesbwatanMy8" fill="rgb(19,22,24)" style="transform: none;"><g><path id="p11XNmpqhu" d="M1956 4339 c-59 -9 -89 -36 -106 -92 -17 -57 -94 -209 -143 -282 -147 -218 -365 -403 -694 -589 -419 -236 -511 -306 -652 -494 -87 -118 -116 -179 -137 -292 -22 -120 -14 -414 12 -439 14 -14 41 23 60 80 35 109 102 240 162 318 74 97 263 268 390 353 55 37 164 102 243 144 355 190 604 371 777 566 153 172 306 454 337 619 10 53 -30 95 -104 109 -60 11 -75 11 -145 -1z"></path><path id="pbj9KloHx" d="M1450 4241 c-122 -34 -215 -79 -364 -180 -287 -194 -570 -513 -602 -678 -9 -43 2 -43 102 5 287 140 706 424 812 551 91 109 156 234 150 288 -4 34 -16 36 -98 14z"></path><path id="pW2kXT7UM" d="M2478 4214 c-9 -11 -28 -64 -42 -119 -79 -298 -324 -641 -638 -892 -97 -77 -331 -222 -563 -348 -220 -120 -282 -159 -410 -261 -174 -140 -266 -253 -341 -425 -66 -148 -84 -234 -84 -388 0 -174 19 -261 86 -394 69 -136 180 -257 236 -257 36 0 64 14 78 40 8 15 5 28 -13 57 -111 181 -144 426 -87 648 68 264 234 440 610 645 224 122 374 210 585 345 99 63 281 212 375 305 238 237 485 660 507 870 5 56 5 57 -33 89 -54 44 -155 92 -206 98 -33 4 -47 1 -60 -13z"></path><path id="pdcbN8f4" d="M3002 3888 c-26 -56 -68 -157 -76 -185 -6 -20 3 -28 101 -78 135 -69 275 -151 345 -203 95 -70 138 -85 138 -46 0 27 -71 155 -109 197 -20 23 -65 77 -100 120 -72 89 -235 237 -261 237 -11 0 -25 -16 -38 -42z"></path><path id="plMM2co1V" d="M2775 3430 c-74 -96 -155 -221 -150 -230 6 -10 262 -154 365 -205 309 -154 567 -429 670 -711 44 -120 52 -134 78 -118 36 23 39 226 6 434 -19 122 -59 208 -154 325 -124 154 -194 218 -395 356 -67 47 -354 209 -369 209 -3 0 -26 -27 -51 -60z"></path><path id="poJrCzuvR" d="M2385 2962 c-38 -37 -95 -88 -125 -114 l-55 -46 25 -26 c35 -39 163 -118 250 -156 482 -210 736 -469 796 -811 34 -200 5 -388 -86 -540 -46 -78 -48 -103 -8 -132 25 -18 31 -19 69 -8 105 32 250 265 296 475 20 89 19 275 0 376 -9 41 -27 106 -41 143 -25 67 -103 198 -146 245 -11 13 -31 40 -44 60 -34 52 -168 179 -252 239 -62 44 -327 203 -339 203 -8 0 -206 119 -232 140 -14 11 -28 20 -32 20 -3 0 -37 -31 -76 -68z"></path><path id="p6XJG60qn" d="M1941 2451 c-28 -30 -89 -167 -123 -274 -22 -70 -23 -158 -4 -195 41 -78 133 -122 216 -103 89 20 142 83 148 176 5 75 -10 128 -78 270 -77 161 -105 184 -159 126z"></path><path id="pC4phNMSm" d="M1245 1957 c-129 -51 -189 -139 -189 -277 -1 -88 25 -151 85 -211 63 -63 112 -84 199 -84 62 1 84 5 126 27 95 50 145 127 152 233 8 131 -56 237 -178 298 -59 30 -140 35 -195 14z"></path><path id="p2y5bpMJV" d="M2523 1945 c-68 -34 -137 -111 -158 -176 -23 -67 -17 -169 13 -230 90 -185 321 -212 460 -54 97 111 95 264 -5 375 -63 71 -120 101 -196 107 -53 4 -70 1 -114 -22z"></path><path id="pco7vk1Oo" d="M1817 1566 c-47 -193 -172 -335 -392 -444 -78 -39 -354 -134 -485 -167 -174 -44 -341 -128 -441 -222 -91 -85 -169 -233 -169 -322 0 -85 54 -161 115 -161 31 0 34 4 61 68 48 112 207 261 340 317 82 35 205 77 349 121 268 81 445 181 606 343 91 92 179 206 179 232 0 7 22 -20 49 -61 129 -197 354 -376 581 -463 36 -14 137 -48 225 -76 203 -65 293 -104 399 -175 99 -66 153 -124 207 -223 53 -95 59 -100 105 -76 83 41 100 165 41 288 -101 209 -265 312 -712 446 -291 87 -466 179 -565 298 -19 23 -49 57 -66 75 -35 38 -72 136 -88 236 l-11 65 -151 3 -151 3 -26 -105z"></path><path id="pgnSsgbEK" d="M1920 890 c-92 -71 -166 -121 -235 -160 -107 -59 -117 -77 -59 -105 132 -63 511 -62 723 1 51 15 52 16 38 37 -8 12 -51 45 -96 72 -45 28 -111 77 -148 110 -82 74 -112 95 -138 95 -11 0 -49 -23 -85 -50z"></path></g></g></svg>