<svg class="img-fluid" id="outputsvg" xmlns="http://www.w3.org/2000/svg" style="transform: matrix(1, 0, 0, 1, 0, 0); transform-origin: 50% 50%; cursor: move; max-height: none; transition: none;" width="402" height="572" viewBox="0 0 4020 5720"><g id="l4cRSn93uKT9bJRC4XrTySW" fill="rgb(51,52,51)" style="transform: none;"><g style="transform: none;"><path id="p1C0FQpW1T" d="M258 5509 c-49 -23 -88 -46 -88 -49 0 -4 14 -25 31 -46 17 -22 34 -44 38 -51 5 -9 22 -4 65 17 95 48 195 39 184 -17 -2 -13 -31 -26 -111 -49 -116 -34 -158 -61 -183 -121 -63 -146 92 -282 278 -244 35 7 84 24 109 39 l46 25 -36 53 c-20 29 -41 53 -47 54 -7 0 -32 -11 -55 -25 -24 -14 -60 -25 -79 -25 -39 0 -80 23 -80 45 0 23 46 51 112 69 132 36 170 60 194 123 21 53 14 102 -21 154 -37 56 -93 82 -190 86 -77 4 -83 3 -167 -38z"></path><path id="pS33PDlhP" d="M1783 5456 l-49 -91 -47 -3 -47 -3 0 68 c0 113 -1 114 -79 111 l-66 -3 -3 -293 -2 -294 179 4 179 3 44 30 c57 41 88 96 88 160 0 61 -36 144 -74 168 -14 10 -26 22 -26 27 0 6 25 51 56 101 31 50 54 92 53 93 -2 2 -39 6 -81 8 l-76 5 -49 -91z m27 -244 c29 -24 29 -66 0 -98 -21 -21 -32 -24 -97 -24 l-73 0 0 70 0 70 74 0 c56 0 79 -4 96 -18z"></path><path id="pawaocEvp" d="M2250 5541 c-31 -5 -35 -10 -42 -46 -8 -49 -10 -507 -2 -529 5 -13 22 -16 85 -16 l79 0 0 284 c0 341 5 329 -120 307z"></path><path id="p19PTTsd6v" d="M2565 5529 c4 -13 16 -37 28 -54 12 -16 54 -76 94 -132 40 -55 73 -105 73 -110 0 -5 -12 -20 -26 -34 -29 -26 -164 -224 -164 -240 0 -5 36 -9 80 -9 l79 0 65 90 64 90 57 -91 c49 -77 61 -90 79 -85 12 3 44 6 73 6 l52 0 -53 78 c-30 43 -62 102 -72 131 -11 29 -27 57 -36 62 -28 15 -21 38 20 78 47 46 142 186 142 211 0 22 -27 30 -101 30 -54 0 -57 -2 -69 -31 -7 -16 -34 -59 -61 -95 l-48 -65 -39 58 c-83 120 -89 125 -171 131 l-73 5 7 -24z"></path><path id="p4u80pRUc" d="M974 5526 c-3 -9 -4 -110 -3 -226 l4 -210 -87 0 -88 0 0 -70 0 -70 250 0 250 0 0 59 c0 93 0 93 -91 85 l-79 -7 -2 224 -3 224 -73 3 c-57 2 -73 0 -78 -12z"></path><path id="patQWeXy7" d="M3466 5518 c-3 -13 -6 -67 -6 -120 l0 -97 -84 -134 c-90 -143 -116 -190 -116 -207 0 -6 30 -10 78 -10 l77 0 29 48 c17 26 44 73 61 105 l32 58 69 -105 69 -106 72 0 c52 0 73 4 73 13 0 7 -18 35 -41 62 -23 27 -54 75 -70 105 -17 30 -47 83 -67 118 l-37 63 7 87 c4 48 5 99 2 115 -5 26 -7 27 -74 27 -62 0 -68 -2 -74 -22z"></path><path id="pxaD742Ie" d="M1951 4339 c-55 -11 -84 -38 -101 -92 -17 -57 -94 -209 -143 -282 -146 -218 -364 -402 -694 -589 -225 -128 -410 -242 -468 -290 -66 -55 -105 -99 -197 -222 -108 -147 -138 -247 -138 -468 0 -140 15 -246 36 -246 18 0 40 35 54 88 20 77 98 231 156 308 74 98 259 267 389 354 56 38 167 103 246 145 546 291 845 566 1024 940 49 102 95 232 95 268 0 72 -124 113 -259 86z"></path><path id="p18BZnwP7f" d="M1450 4241 c-201 -55 -446 -213 -666 -429 -152 -149 -254 -290 -294 -406 -18 -53 -18 -56 -1 -56 44 0 312 147 541 298 259 170 372 272 458 414 45 75 73 158 61 180 -11 21 -15 21 -99 -1z"></path><path id="p14LVUu5Ku" d="M2478 4214 c-9 -11 -27 -62 -41 -114 -80 -300 -320 -638 -634 -893 -97 -78 -357 -239 -601 -372 -452 -245 -659 -458 -767 -789 -67 -207 -49 -461 46 -648 111 -221 231 -316 305 -243 14 14 24 29 22 33 -2 4 -26 52 -54 108 -45 88 -53 116 -69 219 -62 412 114 721 550 962 540 299 695 398 927 592 116 97 183 170 292 316 169 225 326 550 326 673 0 35 -6 45 -37 72 -53 43 -154 91 -205 97 -33 4 -47 1 -60 -13z"></path><path id="p1C3A42gPA" d="M3024 3922 c-14 -8 -93 -192 -97 -223 -2 -18 15 -30 98 -73 124 -64 284 -158 350 -206 93 -68 135 -82 135 -44 0 27 -71 155 -109 197 -20 23 -65 77 -100 120 -63 78 -234 237 -255 237 -6 0 -16 -4 -22 -8z"></path><path id="pQtqjFoED" d="M2804 3468 c-19 -22 -78 -103 -153 -211 -28 -41 -31 -51 -20 -62 8 -7 88 -53 179 -103 91 -50 201 -110 244 -134 146 -79 295 -202 400 -328 97 -117 157 -217 200 -335 45 -124 48 -129 74 -133 31 -5 37 30 36 198 -2 270 -40 397 -169 560 -120 152 -211 233 -410 367 -73 49 -345 203 -358 203 -2 0 -12 -10 -23 -22z"></path><path id="pSELBuR4X" d="M2385 2962 c-38 -37 -95 -88 -125 -114 l-55 -46 25 -27 c40 -43 148 -110 246 -153 210 -92 394 -202 505 -300 103 -92 209 -243 253 -361 42 -114 51 -169 51 -316 0 -166 -19 -242 -91 -367 -24 -43 -44 -86 -44 -97 0 -11 12 -29 27 -41 54 -42 134 0 213 112 175 249 221 552 128 835 -29 87 -105 224 -157 281 -12 13 -32 40 -45 60 -34 52 -168 179 -251 239 -39 28 -125 81 -190 118 -255 144 -341 195 -374 219 -19 15 -37 26 -40 26 -3 0 -37 -31 -76 -68z"></path><path id="p17l5ZglUf" d="M1941 2453 c-25 -26 -65 -109 -114 -243 -15 -39 -21 -80 -21 -142 l-1 -87 44 -45 c128 -131 331 -46 331 139 0 63 -46 195 -107 305 -61 111 -82 122 -132 73z"></path><path id="p16qn2HWSf" d="M1245 1957 c-86 -34 -133 -76 -165 -150 -65 -147 -9 -315 131 -392 47 -26 64 -30 129 -30 61 0 84 5 126 27 95 50 145 127 152 233 8 131 -56 237 -178 298 -59 30 -140 35 -195 14z"></path><path id="pyps17Ngb" d="M2534 1951 c-56 -26 -119 -84 -152 -140 -24 -41 -27 -56 -27 -141 0 -79 4 -102 22 -136 53 -100 153 -159 256 -152 191 12 322 203 261 381 -19 56 -90 138 -151 173 -60 36 -152 42 -209 15z"></path><path id="p1DvQonOb8" d="M1821 1579 c-12 -50 -35 -118 -52 -149 -63 -118 -190 -231 -344 -308 -79 -39 -315 -121 -470 -162 -219 -59 -387 -149 -488 -260 -81 -90 -137 -207 -137 -290 0 -84 53 -160 112 -160 33 0 36 3 68 73 57 123 185 239 344 312 65 30 245 92 421 145 96 30 238 98 340 164 136 89 294 251 357 367 l17 31 20 -39 c50 -98 169 -228 301 -327 121 -91 244 -154 390 -201 335 -107 420 -143 544 -226 90 -60 145 -120 197 -216 53 -95 59 -100 106 -76 49 24 74 74 75 153 1 89 -55 200 -152 298 -63 64 -88 81 -203 137 -123 60 -186 83 -502 181 -198 61 -369 161 -457 265 -21 24 -49 56 -63 70 -32 34 -73 143 -88 234 l-12 70 -152 3 -151 3 -21 -92z"></path><path id="ppC7CFab6" d="M1874 857 c-60 -46 -141 -100 -180 -121 -117 -65 -129 -86 -66 -113 116 -48 405 -60 603 -25 112 20 169 38 169 52 0 13 -45 48 -108 85 -34 20 -90 60 -123 88 -111 96 -140 117 -162 117 -12 0 -72 -38 -133 -83z"></path></g></g></svg>